<svg xmlns="http://www.w3.org/2000/svg" viewBox="0 0 823.75 142"><defs><style>.cls-1,.cls-2{fill:#fff;}.cls-2{stroke:#fff;stroke-miterlimit:10;stroke-width:5px;}</style></defs><g id="Layer_2" data-name="Layer 2"><g id="Layer_1-2" data-name="Layer 1"><g id="white_logo" data-name="white logo"><path class="cls-1" d="M51.48,115.65a59.74,59.74,0,0,1-20.08-3.19,42.53,42.53,0,0,1-15.31-9.22A40,40,0,0,1,6.38,88.69,52,52,0,0,1,3,69.42,52.75,52.75,0,0,1,8.31,45.49,39.8,39.8,0,0,1,24.09,28.71Q34.55,22.56,50,22.56a76.56,76.56,0,0,1,8.4.47q4.21.46,8.22,1.31a74.25,74.25,0,0,1,7.56,2,47.27,47.27,0,0,1,6.43,2.59L78.47,57.05a66.35,66.35,0,0,0-9.28-5.16,44.27,44.27,0,0,0-8.28-2.84,32.85,32.85,0,0,0-7.18-.87,20.1,20.1,0,0,0-9.56,2.24,16,16,0,0,0-6.71,6.94Q35,62,35,69.29a26.35,26.35,0,0,0,1.25,8.15,20,20,0,0,0,3.81,6.94,17.73,17.73,0,0,0,6.53,4.78A23.23,23.23,0,0,0,56,90.91a36.54,36.54,0,0,0,11-1.72,33.41,33.41,0,0,0,5.84-2.5,45.51,45.51,0,0,0,6-3.91l1.38,27.74a36.16,36.16,0,0,1-6.06,2.28,64.59,64.59,0,0,1-7.09,1.6q-3.72.61-7.69.93C56.74,115.54,54.1,115.65,51.48,115.65Z"/><path class="cls-1" d="M91,113.65V24.56H121.7v89.09Zm23.24-32V56.42h36.24V81.66Zm28.36,32V24.56H173.3v89.09Z"/><path class="cls-1" d="M184.79,113.65V24.56h63.35V48.67H203.29l11.49-19.11v79.09l-9.49-19.12H249v24.12Zm22.87-33.86V58.3h39.11V79.79H207.66Z"/><path class="cls-1" d="M305.49,115.65a59.74,59.74,0,0,1-20.08-3.19,42.53,42.53,0,0,1-15.31-9.22,40,40,0,0,1-9.71-14.55A52,52,0,0,1,257,69.42a52.75,52.75,0,0,1,5.31-23.93A39.8,39.8,0,0,1,278.1,28.71q10.45-6.15,25.89-6.15a76.56,76.56,0,0,1,8.4.47q4.22.46,8.22,1.31a74.25,74.25,0,0,1,7.56,2,47.27,47.27,0,0,1,6.43,2.59l-2.12,28.12a66.35,66.35,0,0,0-9.28-5.16,44.52,44.52,0,0,0-8.28-2.84,32.85,32.85,0,0,0-7.18-.87,20.1,20.1,0,0,0-9.56,2.24,16,16,0,0,0-6.71,6.94Q289,62,289,69.29a26.35,26.35,0,0,0,1.25,8.15,20,20,0,0,0,3.81,6.94,17.81,17.81,0,0,0,6.53,4.78,23.23,23.23,0,0,0,9.4,1.75,36.54,36.54,0,0,0,11-1.72,33.83,33.83,0,0,0,5.85-2.5,46.09,46.09,0,0,0,6-3.91l1.38,27.74a36.16,36.16,0,0,1-6.06,2.28,64.07,64.07,0,0,1-7.09,1.6q-3.72.61-7.69.93C310.75,115.54,308.11,115.65,305.49,115.65Z"/><path class="cls-1" d="M345,113.65V24.56h30.61v89.09Zm48,0q-2.13-5.39-4.06-10.16l-3.81-9.4L379,78.91h-5.38V55.3h4.88l6-12,4.34-8.62,5-10.12h34.48q-4.56,7-9,13.87l-9,13.93-11.5,17.81-.62-13.5L410.94,80q2.94,5.31,6.31,11.49t6.56,12q3.19,5.84,5.5,10.09Z"/><path class="cls-1" d="M818.26,24.87a5.11,5.11,0,0,1,5.08,5.75c-.33,2.6-.65,5.22-1,7.87q-.84,6.93-1.84,15l-3.81,30.36q-1,8-1.9,15.34c-.43,3.41-.85,6.84-1.28,10.28a5.13,5.13,0,0,1-5.09,4.49H785.59a5.13,5.13,0,0,1-4.83-3.41c-.88-2.49-1.73-4.86-2.53-7.11q-1.76-4.91-3.5-9.72l-6.59-18.45a1.2,1.2,0,0,0-1.13-.79h-.16a1.19,1.19,0,0,0-1.14.83l-6,18.35q-1.63,4.88-3.16,9.56c-.71,2.17-1.48,4.57-2.32,7.18a5.14,5.14,0,0,1-4.88,3.56H727.11a5.12,5.12,0,0,1-5.08-4.44q-.69-5.13-1.37-10.24-1-7.3-2-15.55l-4-30.3q-1.07-8.19-2-15c-.34-2.59-.69-5.2-1-7.8a5.12,5.12,0,0,1,5.08-5.78h18.75a5.11,5.11,0,0,1,5.08,4.5q.53,4.23,1,8.15.75,6,1.43,11.27l1.75,14a1.19,1.19,0,0,0,1.18,1.05h0a1.2,1.2,0,0,0,1.17-.92l3.65-15.2q1.44-6.06,2.84-11.81c.6-2.43,1.17-4.81,1.73-7.13a5.11,5.11,0,0,1,5-3.92h12.36a5.12,5.12,0,0,1,4.86,3.52l1.28,3.91c.83,2.54,1.67,5.11,2.5,7.72s1.69,5.19,2.56,7.77l5,15.24a1.2,1.2,0,0,0,1.14.82H790a1.19,1.19,0,0,0,1.18-1.05L792.91,49q.63-5.37,1.37-11.43c.33-2.65.67-5.37,1-8.18a5.13,5.13,0,0,1,5.09-4.5Z"/><path class="cls-1" d="M640.09,114a3.17,3.17,0,0,1-3.17-3.17V28a3.17,3.17,0,0,1,3.17-3.17h57A3.17,3.17,0,0,1,700.26,28V45.81A3.17,3.17,0,0,1,697.09,49H661a3.17,3.17,0,0,1-2.72-4.81l2.71-4.5a3.17,3.17,0,0,1,5.89,1.63V95.43h0a3.17,3.17,0,0,1-6,1.41l-1.2-2.41a3.17,3.17,0,0,1,2.84-4.59H698A3.17,3.17,0,0,1,701.14,93v17.77A3.17,3.17,0,0,1,698,114Zm19.69-37V61.78A3.18,3.18,0,0,1,663,58.6h32.76a3.17,3.17,0,0,1,3.17,3.18V76.92a3.17,3.17,0,0,1-3.17,3.17H663A3.17,3.17,0,0,1,659.78,76.92Z"/><path class="cls-1" d="M621.14,24.87a5,5,0,0,1,5,5v79a5,5,0,0,1-5,5h-18.6a5,5,0,0,1-4.22-2.29q-3.55-5.46-6.54-10.08l-7.34-11.37-8.79-13.53a1.54,1.54,0,0,0-1.3-.71h0a1.28,1.28,0,0,0-1.28,1.28v31.67a5,5,0,0,1-5,5H549.49a5,5,0,0,1-5-5v-79a5,5,0,0,1,5-5h18.38a5,5,0,0,1,4.18,2.25l5.83,8.9q3.75,5.71,8.12,12.34l9.21,14a1.18,1.18,0,0,0,1,.54h.15a1.2,1.2,0,0,0,1.2-1.2V29.89a5,5,0,0,1,5-5Z"/><path class="cls-1" d="M493.11,22.87q14.86,0,23.68,4.46A26.83,26.83,0,0,1,529.47,40.2q3.87,8.4,3.87,20.15v52.32a1.28,1.28,0,0,1-1.28,1.28H504a1.28,1.28,0,0,1-1.28-1.28V61.48a23.45,23.45,0,0,0-1.09-7.66,9.54,9.54,0,0,0-3.22-4.65,9.66,9.66,0,0,0-10.53,0,9,9,0,0,0-3,4.65,27,27,0,0,0-.93,7.66v51.19a1.28,1.28,0,0,1-1.28,1.28H454.65a1.27,1.27,0,0,1-1.27-1.28V60.23q0-11.68,4.18-20.06a28.48,28.48,0,0,1,13-12.84Q479.31,22.88,493.11,22.87Z"/><line class="cls-2" x1="460.28" y1="2.5" x2="823.75" y2="2.5"/><line class="cls-2" y1="139.5" x2="428.28" y2="139.5"/></g></g></g></svg>